<?xml version="1.0" encoding="utf-8"?>
<!-- Generator: Adobe Illustrator 15.0.0, SVG Export Plug-In . SVG Version: 6.00 Build 0)  -->
<!DOCTYPE svg PUBLIC "-//W3C//DTD SVG 1.1//EN" "http://www.w3.org/Graphics/SVG/1.1/DTD/svg11.dtd">
<svg version="1.1" id="Capa_1" xmlns="http://www.w3.org/2000/svg" xmlns:xlink="http://www.w3.org/1999/xlink" x="0px" y="0px"
	 width="1308.7px" height="172.46px" viewBox="0 0 1308.7 172.46" enable-background="new 0 0 1308.7 172.46" xml:space="preserve">
<g>
	<path d="M86.72,86.12v50.91H60.21V85.42c0-7.493-1.14-12.993-3.42-16.5c-2.28-3.507-5.966-5.263-11.06-5.27
		c-5.092,0.002-9.968,2.061-13.52,5.71c-3.9,3.8-5.85,9.386-5.85,16.76v50.91H0V42.59h26.36v10.7
		c7.26-8.193,15.57-12.287,24.93-12.28c5.826-0.046,11.51,1.789,16.21,5.23c4.677,3.291,8.457,7.697,11,12.819
		c3.58-5.698,8.65-10.312,14.66-13.34c5.702-3.049,12.055-4.675,18.52-4.74c11.113,0,20.067,3.305,26.86,9.91
		c6.793,6.606,10.187,16.178,10.18,28.71V137h-26.54V85.42c0-14.507-5.333-21.763-16-21.77c-5.154-0.047-10.104,2.017-13.7,5.71
		C88.64,73.16,86.72,78.746,86.72,86.12"/>
	<path d="M441.09,30.56c-6.186-6.061-6.287-15.987-0.226-22.174c6.06-6.185,15.987-6.287,22.174-0.226
		c6.185,6.061,6.286,15.988,0.226,22.174c-2.942,3.003-6.969,4.699-11.174,4.706C447.962,35.133,443.979,33.511,441.09,30.56
		 M465.23,137.03H438.9V42.59h26.33V137.03z"/>
	<path d="M535.45,115.09c8.779,0,16.68-4.391,23.699-13.17l15.62,17.561c-12.167,12.666-25.333,19-39.5,19
		s-26.136-4.491-35.91-13.471c-9.766-8.96-14.649-20.663-14.649-35.109s4.944-26.211,14.83-35.291
		c9.524-8.928,22.146-13.804,35.2-13.6c7.082,0.064,14.085,1.501,20.619,4.229c6.94,2.79,13.197,7.039,18.351,12.46L560.02,75.61
		c-6.068-7.099-14.892-11.254-24.229-11.411c-6.588-0.121-12.97,2.3-17.82,6.761c-4.973,4.5-7.46,10.76-7.46,18.779
		c0,8.021,2.487,14.253,7.46,18.701C522.738,112.801,528.99,115.18,535.45,115.09"/>
	<path d="M685.19,89.811c0,13.692-4.74,25.22-14.221,34.579c-9.479,9.359-21.387,14.044-35.72,14.051
		c-14.34,0-26.25-4.684-35.729-14.051c-9.48-9.366-14.221-20.893-14.221-34.579c0-13.694,4.74-25.25,14.221-34.67
		c9.479-9.42,21.39-14.13,35.729-14.13c14.333,0,26.24,4.71,35.72,14.13C680.45,64.561,685.19,76.116,685.19,89.811 M611.811,89.811
		c0,7.72,2.192,14.01,6.58,18.869c8.764,9.31,23.414,9.751,32.724,0.985c0.339-0.317,0.667-0.646,0.986-0.985
		c4.394-4.859,6.587-11.149,6.579-18.869c-0.007-7.72-2.199-14.054-6.579-19c-8.644-9.31-23.196-9.85-32.506-1.206
		c-0.416,0.387-0.817,0.789-1.204,1.206C614.01,75.764,611.816,82.097,611.811,89.811"/>
	<rect x="704.669" y="6.77" width="26.341" height="130.261"/>
	<path d="M758.13,30.56c-6.18-6.058-6.279-15.979-0.22-22.159c6.058-6.18,15.979-6.278,22.159-0.221
		c6.181,6.06,6.278,15.98,0.221,22.16c-2.94,2.999-6.96,4.692-11.16,4.7C765.001,35.137,761.016,33.515,758.13,30.56 M782.26,137.03
		h-26.33V42.59h26.33V137.03z"/>
	<path d="M893.91,86.12v50.91h-26.551V85.42c0-7.493-1.139-12.993-3.42-16.5c-2.279-3.507-5.967-5.263-11.06-5.27
		c-5.092,0.002-9.968,2.061-13.521,5.71c-3.92,3.8-5.88,9.386-5.88,16.76v50.91h-26.29V42.59h26.33v10.7
		c7.26-8.193,15.571-12.287,24.931-12.28c5.836-0.052,11.531,1.782,16.239,5.23c4.677,3.291,8.457,7.697,11,12.819
		c3.59-5.688,8.661-10.289,14.67-13.31c5.701-3.049,12.056-4.675,18.521-4.74c11.12,0,20.074,3.303,26.86,9.91
		s10.18,16.177,10.18,28.71v57.4h-26.561V85.42c0-14.507-5.333-21.763-16-21.77c-5.153-0.043-10.102,2.019-13.699,5.71
		C895.827,73.16,893.91,78.746,893.91,86.12"/>
	<path d="M981.94,30.56c-6.186-6.061-6.287-15.987-0.227-22.174c6.061-6.185,15.988-6.287,22.173-0.226
		c6.187,6.061,6.287,15.988,0.228,22.174c-2.943,3.003-6.97,4.699-11.174,4.706C988.811,35.133,984.829,33.511,981.94,30.56
		 M1006.08,137.03h-26.33V42.59h26.33V137.03z"/>
	<path d="M1062.431,61.55v42.301c0,3.626,0.937,6.466,2.81,8.52c1.667,1.949,4.104,3.071,6.669,3.07c4.92,0,9.078-2.224,12.47-6.67
		l9.83,18.43c-8.199,7.493-16.833,11.24-25.898,11.24c-8.563,0.191-16.844-3.049-23-9c-6.268-6-9.401-14.134-9.401-24.4V61.55
		h-11.049v-19h11.06V14.32h26.511v28.27h22.818v19L1062.431,61.55z"/>
	<path d="M1190.049,123.34c-10.666,10.061-23.158,15.094-37.479,15.101c-14.321,0.007-26.17-4.414-35.55-13.262
		c-9.335-8.825-14-20.675-14-35.549c0-14.873,4.77-26.692,14.31-35.46c9.123-8.615,21.244-13.336,33.79-13.16
		c12.987,0,24.016,3.92,33.089,11.761c9.075,7.84,13.611,18.606,13.611,32.3v14h-68.861c0.819,5.153,3.747,9.732,8.081,12.64
		c4.488,3.256,9.905,4.982,15.45,4.92c9.24,0,16.846-3.104,22.82-9.31L1190.049,123.34z M1164.771,67.34
		c-3.72-3.077-8.427-4.7-13.25-4.569c-5.158-0.018-10.184,1.646-14.312,4.739c-4.229,2.999-6.978,7.664-7.549,12.82h41.429
		C1170.51,74.71,1168.403,70.38,1164.771,67.34"/>
	<path d="M1254.57,138.44c-11.181,0-21.16-4.744-29.941-14.231c-8.779-9.485-13.166-21.246-13.159-35.279
		c0-14.039,4.271-25.536,12.811-34.49c8.54-8.953,18.54-13.429,30-13.429c11.467,0,20.83,4.035,28.09,12.109V6.771h26.33v130.26
		h-26.34v-12.46C1275.027,133.811,1265.763,138.434,1254.57,138.44 M1237.98,89.98c0,7.613,2.279,13.847,6.84,18.699
		c4.559,4.854,9.893,7.279,16,7.279c6.01,0.04,11.716-2.635,15.529-7.279c4.268-4.859,6.403-11.119,6.41-18.779
		c0.006-7.66-2.127-14.04-6.399-19.14c-4.268-5.087-9.503-7.635-15.71-7.641c-6.207-0.007-11.54,2.569-16,7.73
		C1240.197,76.003,1237.973,82.379,1237.98,89.98"/>
	<path fill="#009D37" d="M239.56,172.46c0,0,26.1-14.91,31.69-59.649c0,0-22.37-3.73-18.64-22.381c3.37-16.85,21.44-14,21.44-14
		s3.72-22.37,22.37-37.28L234.9,0c-30.77,4.66-44.75,18.64-44.75,18.64l43.81,15.851l-1.86,1.859h-44.74
		c-11.25,5.709-20.391,14.851-26.1,26.101l50.33,1.859l3.73,5.601l-37.29,5.59c0,0-18.64,22.37-16.77,41l46.6-16.77v5.589
		l-18.64,16.781c0,0-3.73,24.229,1.86,35.42l35.43-29.831l5.59,1.86l-11.19,18.69C220.91,148.24,222.78,157.55,239.56,172.46"/>
	<path fill="#E91F78" d="M271.25,82.04c6.693,0,12.12,5.427,12.12,12.12c0,6.692-5.427,12.12-12.12,12.12
		c-6.694,0-12.12-5.428-12.12-12.12C259.13,87.467,264.556,82.04,271.25,82.04"/>
	<path fill="#E91F78" d="M275.63,74.87c0,0,12.14,4.63,13.67,16.16c0,0,24.641-18.66,34.521-26.87l-18.46-20.92
		c-13.39,9.67-29.76,31.63-29.76,31.63"/>
	<path d="M390.45,88.75l32.479-46.16h-30.9l-16.67,25.271L359.21,42.59h-31.431l31.25,46.34l-16.81,24.49l8.26,9.641
		c0,0-6.859,9.1-17,14h22.88l17.91-26l18.431,26h31.46L390.45,88.75z"/>
</g>
</svg>
